<svg width="289" height="968" viewBox="0 0 289 968" fill="none" xmlns="http://www.w3.org/2000/svg">
<path d="M145.5 68.5L144 249.5" stroke="white" stroke-width="6"/>
<path d="M144 317V504" stroke="white" stroke-width="6"/>
<path d="M145.5 643.5V757.5" stroke="white" stroke-width="6"/>
<path d="M144 574V704.5" stroke="white" stroke-width="6"/>
<path d="M149.022 17.6364V54H142.435V24.0462H142.222L133.717 29.4794V23.4425L142.754 17.6364H149.022Z" fill="white"/>
<path d="M132.23 301V296.241L144.855 283.866C146.062 282.647 147.068 281.563 147.873 280.616C148.678 279.67 149.282 278.752 149.684 277.864C150.087 276.977 150.288 276.03 150.288 275.023C150.288 273.875 150.027 272.893 149.507 272.076C148.986 271.247 148.27 270.608 147.358 270.158C146.447 269.709 145.411 269.484 144.251 269.484C143.055 269.484 142.008 269.732 141.108 270.229C140.208 270.715 139.51 271.407 139.013 272.307C138.528 273.206 138.285 274.278 138.285 275.521H132.017C132.017 273.212 132.544 271.206 133.597 269.501C134.651 267.797 136.101 266.477 137.948 265.542C139.806 264.607 141.937 264.139 144.34 264.139C146.778 264.139 148.921 264.595 150.767 265.506C152.614 266.418 154.046 267.667 155.064 269.253C156.094 270.839 156.609 272.65 156.609 274.686C156.609 276.047 156.348 277.385 155.828 278.699C155.307 280.013 154.389 281.469 153.075 283.067C151.773 284.665 149.944 286.6 147.589 288.873L141.321 295.247V295.496H157.159V301H132.23Z" fill="white"/>
<path d="M145.282 557.497C142.725 557.497 140.452 557.059 138.464 556.183C136.487 555.307 134.924 554.088 133.776 552.526C132.628 550.963 132.018 549.158 131.947 547.11H138.624C138.683 548.093 139.008 548.951 139.6 549.685C140.192 550.407 140.979 550.969 141.962 551.371C142.944 551.774 144.045 551.975 145.264 551.975C146.566 551.975 147.72 551.75 148.727 551.3C149.733 550.839 150.52 550.2 151.088 549.383C151.656 548.566 151.934 547.625 151.923 546.56C151.934 545.459 151.65 544.488 151.07 543.648C150.49 542.807 149.65 542.15 148.549 541.677C147.46 541.203 146.146 540.967 144.607 540.967H141.393V535.888H144.607C145.874 535.888 146.981 535.67 147.928 535.232C148.886 534.794 149.638 534.178 150.183 533.385C150.727 532.58 150.993 531.651 150.982 530.597C150.993 529.567 150.763 528.674 150.289 527.916C149.827 527.147 149.17 526.549 148.318 526.123C147.478 525.697 146.489 525.484 145.353 525.484C144.24 525.484 143.21 525.685 142.263 526.087C141.317 526.49 140.553 527.064 139.973 527.81C139.393 528.544 139.085 529.42 139.05 530.438H132.711C132.758 528.402 133.344 526.614 134.469 525.075C135.605 523.525 137.12 522.317 139.014 521.453C140.908 520.577 143.033 520.139 145.388 520.139C147.815 520.139 149.922 520.595 151.71 521.506C153.509 522.406 154.9 523.619 155.882 525.146C156.865 526.673 157.356 528.36 157.356 530.207C157.368 532.254 156.764 533.971 155.545 535.356C154.337 536.741 152.751 537.646 150.786 538.072V538.357C153.343 538.712 155.302 539.659 156.663 541.197C158.036 542.724 158.717 544.624 158.705 546.897C158.705 548.933 158.125 550.756 156.965 552.366C155.817 553.964 154.231 555.219 152.207 556.13C150.194 557.041 147.886 557.497 145.282 557.497Z" fill="white"/>
<circle cx="144.5" cy="35.5" r="33.5" stroke="white" stroke-width="4"/>
<circle cx="144.5" cy="538.5" r="33.5" stroke="white" stroke-width="4"/>
<circle cx="144.5" cy="283.5" r="33.5" transform="rotate(180 144.5 283.5)" stroke="white" stroke-width="4"/>
<rect y="97" width="288" height="116" rx="10" fill="white"/>
<rect y="345" width="288" height="116" rx="10" fill="white"/>
<rect y="600" width="288" height="116" rx="10" fill="white"/>
<path d="M145 826V956.5" stroke="white" stroke-width="6"/>
<path d="M129.575 800.253V795.015L145.004 770.636H149.372V778.094H146.709L136.322 794.553V794.837H157.859V800.253H129.575ZM146.922 807V798.655L146.993 796.311V770.636H153.207V807H146.922Z" fill="white"/>
<circle cx="145.5" cy="790.5" r="33.5" stroke="white" stroke-width="4"/>
<rect x="1" y="852" width="288" height="116" rx="10" fill="white"/>
</svg>
