<svg width="763" height="763" viewBox="0 0 763 763" fill="none" xmlns="http://www.w3.org/2000/svg">
<path d="M97.5 226.095L24.5 336.855L6.5 323.582L52 418.78L112 408.711L125 323.582L172 438.46L136.5 543.728L249.5 506.198L395.5 278.729L370 168.427L411 5.03452L302.5 61.7872L311.5 125.863L157.5 16.0189L34 79.1792L6.5 248.522L97.5 226.095Z" fill="#FC466B"/>
<path d="M21 445.326L110.5 454.479L154 429.307L94 565.239L320.5 540.981L357 400.93L444.5 410.084L520 611.007L387 730.462L404.5 598.65L164 678.744L379 663.641L198.5 749.685L11 699.34L59.5 619.703L0 525.42L21 445.326Z" fill="#324BC7"/>
<path d="M475.93 742.364L494.902 677.425L429.5 657.289L484.418 604.936L462.451 462.474L576.779 313.971L727.053 334.107L698.097 429.753L527.852 467.508L618.716 647.221L582.271 507.78L718.067 483.616L657.657 610.977L762.5 570.201L742.53 705.616L679.624 762.5L570.788 717.697L475.93 742.364Z" fill="#C93855"/>
<path d="M346 306.19L387 273.694L424.5 265.456L380 223.349L465.5 209.161L395.5 160.189L430 32.0378L564 177.581L644 132.728L534.5 115.794L492 54.4643L519 0L634 5.94988L735 32.0378L756 173.462L689.5 203.669L669.5 251.268H748L743 300.24L620.5 286.967L610.5 215.111L492 386.285L380 365.231L346 306.19Z" fill="#3F5EFB"/>
</svg>
