<svg xmlns="http://www.w3.org/2000/svg" viewBox="0 0 111.46 111.54"><defs><style>.cls-1{fill:#bd0023;}.cls-2{fill:#e3002a;}.cls-3{fill:#fc002e;}.cls-4{fill:#3d000b;}</style></defs><g id="Layer_2" data-name="Layer 2"><g id="Layer_1-2" data-name="Layer 1"><path class="cls-1" d="M48.85,72.38C48.4,75.67,48,79,47.54,82.24c-.69,5.21-1.37,10,.19,15.11A22.3,22.3,0,0,0,54.23,108,13.83,13.83,0,0,0,66,111.26c4.44-1,9.22-4.16,12.86-6.8,4.53-3.28,10-5.27,14.25-8.9,6.93-5.91,6.72-13.14,3.43-20.94C94.21,69.2,88.9,65.74,83.67,63a110.61,110.61,0,0,0-19.59-7.87,12.42,12.42,0,0,0-4.34-.7c-4.89.34-9.08,5.07-9.73,9.61C49.61,66.85,49.23,69.61,48.85,72.38Z"/><path class="cls-2" d="M35.83,58.61Q31.36,60.77,26.89,63c-4.71,2.31-9.06,4.39-12.48,8.52a22.29,22.29,0,0,0-5.25,11.3,13.87,13.87,0,0,0,3.76,11.59c3.28,3.14,8.56,5.37,12.77,6.94,5.25,2,9.93,5.41,15.31,7,8.76,2.5,14.67-1.68,19.34-8.74,3.24-4.9,3.19-11.25,2.54-17.1a109.61,109.61,0,0,0-4.29-20.66,12.34,12.34,0,0,0-1.81-4c-3-3.88-9.25-4.75-13.39-2.78Q39.6,56.78,35.83,58.61Z"/><path class="cls-1" d="M63.51,41.73q1.77-4.65,3.5-9.31c1.83-4.92,3.56-9.42,3.2-14.77A22.3,22.3,0,0,0,66.26,5.84,13.84,13.84,0,0,0,55.56,0C51,0,45.65,2,41.51,3.74,36.35,5.92,30.58,6.63,25.62,9.22c-8.08,4.21-9.5,11.3-8,19.64C18.6,34.65,23,39.22,27.49,43a110.77,110.77,0,0,0,17.32,12,12.34,12.34,0,0,0,4.07,1.67c4.84.76,10-2.91,11.64-7.19C61.53,47,62.52,44.34,63.51,41.73Z"/><path class="cls-3" d="M47,40.27q-3.16-3.84-6.37-7.64c-3.37-4-6.42-7.76-11.25-10.08a22.3,22.3,0,0,0-12.23-2.4A13.85,13.85,0,0,0,6.79,26.56C4.52,30.5,3.63,36.16,3.1,40.63,2.45,46.19.22,51.56,0,57.15-.32,66.25,5.15,71,13.12,73.84c5.54,2,11.68.41,17.21-1.61a111.24,111.24,0,0,0,19-9.1,12.44,12.44,0,0,0,3.46-2.73c3.05-3.82,2.4-10.11-.5-13.66C50.56,44.57,48.79,42.42,47,40.27Z"/><path class="cls-2" d="M74.57,51.68q4.56-2,9.11-4c4.81-2.11,9.24-4,12.82-8a22.21,22.21,0,0,0,5.72-11.07A13.84,13.84,0,0,0,99,16.89c-3.15-3.28-8.33-5.72-12.47-7.47-5.16-2.18-9.69-5.82-15-7.58C62.82-1,56.75,2.91,51.79,9.76c-3.45,4.77-3.66,11.11-3.26,17A111.38,111.38,0,0,0,52,47.57a12.65,12.65,0,0,0,1.65,4.08c2.83,4,9,5.13,13.27,3.34Z"/><path class="cls-3" d="M68.62,70.5q4.23,2.61,8.48,5.2c4.48,2.74,8.56,5.3,13.88,6A22.4,22.4,0,0,0,103.34,80a13.86,13.86,0,0,0,7.76-9.39c.9-4.46-.06-10.11-1-14.51-1.16-5.47-.75-11.27-2.34-16.64C105.17,30.77,98.48,28,90,27.87c-5.88-.11-11.2,3.34-15.8,7A111.38,111.38,0,0,0,59.08,49.59a12.73,12.73,0,0,0-2.41,3.68c-1.67,4.6.95,10.36,4.84,12.8Z"/><circle class="cls-4" cx="55.85" cy="55.12" r="10.07"/></g></g></svg>